<svg id="Capa_1" enable-background="new 0 0 497 497" height="512" viewBox="0 0 497 497" width="512" xmlns="http://www.w3.org/2000/svg"><g><g><path d="m27.204 71.231h442.593v119.841h-442.593z" fill="#8b8b8f"/></g><g><path d="m439.796 71.231h30v119.841h-30z" fill="#727275"/></g><g><path d="m58.781 197.191c-2.052.087-4.137-.609-5.768-2.107-3.264-2.997-3.48-8.074-.482-11.337l106.352-115.79c2.998-3.264 8.074-3.479 11.337-.482 3.264 2.997 3.48 8.074.482 11.337l-106.353 115.79c-1.498 1.631-3.517 2.502-5.568 2.589z" fill="#727275"/></g><g><path d="m124.132 197.191c-2.052.087-4.137-.609-5.768-2.107-3.264-2.997-3.48-8.074-.482-11.337l106.352-115.79c2.997-3.264 8.074-3.479 11.337-.482 3.264 2.997 3.48 8.074.482 11.337l-106.353 115.79c-1.498 1.631-3.517 2.502-5.568 2.589z" fill="#727275"/></g><g><path d="m189.482 197.191c-2.052.087-4.137-.609-5.768-2.107-3.264-2.997-3.48-8.074-.482-11.337l106.352-115.79c2.997-3.264 8.074-3.479 11.337-.482 3.264 2.997 3.48 8.074.482 11.337l-106.352 115.79c-1.499 1.631-3.517 2.502-5.569 2.589z" fill="#727275"/></g><g><path d="m254.833 197.191c-2.052.087-4.137-.609-5.768-2.107-3.264-2.997-3.48-8.074-.482-11.337l106.352-115.79c2.997-3.264 8.074-3.479 11.337-.482 3.264 2.997 3.48 8.074.482 11.337l-106.352 115.79c-1.499 1.631-3.517 2.502-5.569 2.589z" fill="#727275"/></g><g><path d="m320.184 197.191c-2.052.087-4.137-.609-5.768-2.107-3.264-2.997-3.48-8.074-.482-11.337l106.352-115.79c2.997-3.264 8.074-3.479 11.337-.482 3.264 2.997 3.48 8.074.482 11.337l-106.352 115.79c-1.499 1.631-3.517 2.502-5.569 2.589z" fill="#727275"/></g><g><path d="m483.713 78.516h-470.426c-7.338 0-13.287-5.949-13.287-13.287v-12.436c0-7.338 5.949-13.287 13.287-13.287h470.426c7.338 0 13.287 5.949 13.287 13.287v12.435c0 7.339-5.949 13.288-13.287 13.288z" fill="#d2d2d7"/></g><g><path d="m483.713 222.797h-470.426c-7.338 0-13.287-5.949-13.287-13.287v-12.435c0-7.338 5.949-13.287 13.287-13.287h470.426c7.338 0 13.287 5.949 13.287 13.287v12.435c0 7.338-5.949 13.287-13.287 13.287z" fill="#d2d2d7"/></g><g><path d="m483.713 39.507h-30c7.338 0 13.287 5.949 13.287 13.287v12.436c0 7.338-5.949 13.287-13.287 13.287h30c7.338 0 13.287-5.949 13.287-13.287v-12.437c0-7.338-5.949-13.286-13.287-13.286z" fill="#b9b9be"/></g><g><path d="m483.713 183.788h-30c7.338 0 13.287 5.949 13.287 13.287v12.435c0 7.338-5.949 13.287-13.287 13.287h30c7.338 0 13.287-5.949 13.287-13.287v-12.435c0-7.338-5.949-13.287-13.287-13.287z" fill="#b9b9be"/></g><g><path d="m27.204 305.928h442.593v119.841h-442.593z" fill="#8b8b8f"/></g><g><path d="m439.796 305.928h30v119.841h-30z" fill="#727275"/></g><g><path d="m58.781 431.887c-2.052.087-4.137-.609-5.768-2.107-3.264-2.997-3.48-8.074-.482-11.337l106.352-115.79c2.998-3.264 8.074-3.479 11.337-.482 3.264 2.997 3.48 8.074.482 11.337l-106.353 115.79c-1.498 1.632-3.517 2.502-5.568 2.589z" fill="#727275"/></g><g><path d="m124.132 431.887c-2.052.087-4.137-.609-5.768-2.107-3.264-2.997-3.48-8.074-.482-11.337l106.352-115.79c2.997-3.264 8.074-3.479 11.337-.482 3.264 2.997 3.48 8.074.482 11.337l-106.353 115.79c-1.498 1.632-3.517 2.502-5.568 2.589z" fill="#727275"/></g><g><path d="m189.482 431.887c-2.052.087-4.137-.609-5.768-2.107-3.264-2.997-3.48-8.074-.482-11.337l106.352-115.79c2.997-3.264 8.074-3.479 11.337-.482 3.264 2.997 3.48 8.074.482 11.337l-106.352 115.79c-1.499 1.632-3.517 2.502-5.569 2.589z" fill="#727275"/></g><g><path d="m254.833 431.887c-2.052.087-4.137-.609-5.768-2.107-3.264-2.997-3.48-8.074-.482-11.337l106.352-115.79c2.997-3.264 8.074-3.479 11.337-.482 3.264 2.997 3.48 8.074.482 11.337l-106.352 115.79c-1.499 1.632-3.517 2.502-5.569 2.589z" fill="#727275"/></g><g><path d="m320.184 431.887c-2.052.087-4.137-.609-5.768-2.107-3.264-2.997-3.48-8.074-.482-11.337l106.352-115.79c2.997-3.264 8.074-3.479 11.337-.482 3.264 2.997 3.48 8.074.482 11.337l-106.352 115.79c-1.499 1.632-3.517 2.502-5.569 2.589z" fill="#727275"/></g><g><path d="m483.713 313.212h-470.426c-7.338 0-13.287-5.949-13.287-13.287v-12.435c0-7.338 5.949-13.287 13.287-13.287h470.426c7.338 0 13.287 5.949 13.287 13.287v12.435c0 7.338-5.949 13.287-13.287 13.287z" fill="#d2d2d7"/></g><g><path d="m483.713 457.493h-470.426c-7.338 0-13.287-5.948-13.287-13.286v-12.435c0-7.338 5.949-13.287 13.287-13.287h470.426c7.338 0 13.287 5.949 13.287 13.287v12.435c0 7.338-5.949 13.286-13.287 13.286z" fill="#d2d2d7"/></g><g><path d="m483.713 274.203h-30c7.338 0 13.287 5.949 13.287 13.287v12.436c0 7.338-5.949 13.287-13.287 13.287h30c7.338 0 13.287-5.949 13.287-13.287v-12.436c0-7.338-5.949-13.287-13.287-13.287z" fill="#b9b9be"/></g><g><path d="m483.713 418.484h-30c7.338 0 13.287 5.949 13.287 13.287v12.435c0 7.338-5.949 13.287-13.287 13.287h30c7.338 0 13.287-5.949 13.287-13.287v-12.435c0-7.338-5.949-13.287-13.287-13.287z" fill="#b9b9be"/></g></g></svg>