<svg xmlns="http://www.w3.org/2000/svg" height="599pt" version="1.1" viewBox="-83 0 599 599.317" width="599pt">
<g id="surface1">
<path d="M 41.425781 0 L 392.5625 0 C 415.375 0 433.871094 18.496094 433.871094 41.308594 L 433.871094 557.6875 C 433.871094 580.503906 415.375 599 392.5625 599 L 41.425781 599 C 18.609375 599 0.113281 580.5 0.113281 557.6875 L 0.113281 41.308594 C 0.113281 18.496094 18.609375 0 41.425781 0 Z M 41.425781 0 " style=" stroke:none;fill-rule:nonzero;fill:rgb(26.27451%,59.607843%,81.960784%);fill-opacity:1;" />
<path d="M 51.753906 61.964844 L 382.234375 61.964844 L 382.234375 175.570312 L 51.753906 175.570312 Z M 51.753906 61.964844 " style=" stroke:none;fill-rule:nonzero;fill:rgb(52.941176%,80.784314%,85.098039%);fill-opacity:1;" />
<path d="M 51.753906 61.964844 L 382.234375 61.964844 L 382.234375 82.621094 L 51.753906 82.621094 Z M 51.753906 61.964844 " style=" stroke:none;fill-rule:nonzero;fill:rgb(44.313725%,76.862745%,81.960784%);fill-opacity:1;" />
<path d="M 299.613281 340.808594 L 382.234375 340.808594 L 382.234375 547.363281 L 299.613281 547.363281 Z M 299.613281 340.808594 " style=" stroke:none;fill-rule:nonzero;fill:rgb(87.058824%,29.803922%,23.529412%);fill-opacity:1;" />
<path d="M 299.613281 526.707031 L 382.234375 526.707031 L 382.234375 547.363281 L 299.613281 547.363281 Z M 299.613281 526.707031 " style=" stroke:none;fill-rule:nonzero;fill:rgb(74.901961%,25.882353%,20%);fill-opacity:1;" />
<path d="M 330.597656 123.929688 L 351.25 123.929688 L 351.25 144.585938 L 330.597656 144.585938 Z M 330.597656 123.929688 " style=" stroke:none;fill-rule:nonzero;fill:rgb(7.058824%,37.647059%,60%);fill-opacity:1;" />
<path d="M 289.285156 123.929688 L 309.941406 123.929688 L 309.941406 144.585938 L 289.285156 144.585938 Z M 289.285156 123.929688 " style=" stroke:none;fill-rule:nonzero;fill:rgb(7.058824%,37.647059%,60%);fill-opacity:1;" />
<path d="M 247.976562 123.929688 L 268.632812 123.929688 L 268.632812 144.585938 L 247.976562 144.585938 Z M 247.976562 123.929688 " style=" stroke:none;fill-rule:nonzero;fill:rgb(7.058824%,37.647059%,60%);fill-opacity:1;" />
<path d="M 175.683594 216.878906 L 258.304688 216.878906 L 258.304688 299.5 L 175.683594 299.5 Z M 175.683594 216.878906 " style=" stroke:none;fill-rule:nonzero;fill:rgb(99.215686%,71.372549%,18.431373%);fill-opacity:1;" />
<path d="M 299.613281 216.878906 L 382.234375 216.878906 L 382.234375 299.5 L 299.613281 299.5 Z M 299.613281 216.878906 " style=" stroke:none;fill-rule:nonzero;fill:rgb(99.215686%,71.372549%,18.431373%);fill-opacity:1;" />
<path d="M 51.753906 216.878906 L 134.371094 216.878906 L 134.371094 299.5 L 51.753906 299.5 Z M 51.753906 216.878906 " style=" stroke:none;fill-rule:nonzero;fill:rgb(99.215686%,71.372549%,18.431373%);fill-opacity:1;" />
<path d="M 175.683594 340.808594 L 258.304688 340.808594 L 258.304688 423.429688 L 175.683594 423.429688 Z M 175.683594 340.808594 " style=" stroke:none;fill-rule:nonzero;fill:rgb(99.215686%,71.372549%,18.431373%);fill-opacity:1;" />
<path d="M 51.753906 340.808594 L 134.371094 340.808594 L 134.371094 423.429688 L 51.753906 423.429688 Z M 51.753906 340.808594 " style=" stroke:none;fill-rule:nonzero;fill:rgb(99.215686%,71.372549%,18.431373%);fill-opacity:1;" />
<path d="M 175.683594 464.742188 L 258.304688 464.742188 L 258.304688 547.363281 L 175.683594 547.363281 Z M 175.683594 464.742188 " style=" stroke:none;fill-rule:nonzero;fill:rgb(99.215686%,71.372549%,18.431373%);fill-opacity:1;" />
<path d="M 51.753906 464.742188 L 134.371094 464.742188 L 134.371094 547.363281 L 51.753906 547.363281 Z M 51.753906 464.742188 " style=" stroke:none;fill-rule:nonzero;fill:rgb(99.215686%,71.372549%,18.431373%);fill-opacity:1;" />
<path d="M 175.683594 278.84375 L 258.304688 278.84375 L 258.304688 299.5 L 175.683594 299.5 Z M 175.683594 278.84375 " style=" stroke:none;fill-rule:nonzero;fill:rgb(100%,63.529412%,18.823529%);fill-opacity:1;" />
<path d="M 299.613281 278.84375 L 382.234375 278.84375 L 382.234375 299.5 L 299.613281 299.5 Z M 299.613281 278.84375 " style=" stroke:none;fill-rule:nonzero;fill:rgb(100%,63.529412%,18.823529%);fill-opacity:1;" />
<path d="M 51.753906 278.84375 L 134.371094 278.84375 L 134.371094 299.5 L 51.753906 299.5 Z M 51.753906 278.84375 " style=" stroke:none;fill-rule:nonzero;fill:rgb(100%,63.529412%,18.823529%);fill-opacity:1;" />
<path d="M 175.683594 402.773438 L 258.304688 402.773438 L 258.304688 423.429688 L 175.683594 423.429688 Z M 175.683594 402.773438 " style=" stroke:none;fill-rule:nonzero;fill:rgb(100%,63.529412%,18.823529%);fill-opacity:1;" />
<path d="M 51.753906 402.773438 L 134.371094 402.773438 L 134.371094 423.429688 L 51.753906 423.429688 Z M 51.753906 402.773438 " style=" stroke:none;fill-rule:nonzero;fill:rgb(100%,63.529412%,18.823529%);fill-opacity:1;" />
<path d="M 51.753906 526.707031 L 134.371094 526.707031 L 134.371094 547.363281 L 51.753906 547.363281 Z M 51.753906 526.707031 " style=" stroke:none;fill-rule:nonzero;fill:rgb(100%,63.529412%,18.823529%);fill-opacity:1;" />
<path d="M 175.683594 526.707031 L 258.304688 526.707031 L 258.304688 547.363281 L 175.683594 547.363281 Z M 175.683594 526.707031 " style=" stroke:none;fill-rule:nonzero;fill:rgb(100%,63.529412%,18.823529%);fill-opacity:1;" />
</g>
</svg>