<svg xmlns="http://www.w3.org/2000/svg" viewBox="0 0 270.78 34.42"><defs><style>.cls-1{fill:#fff;}</style></defs><g id="Layer_2" data-name="Layer 2"><g id="Layer_1-2" data-name="Layer 1"><path class="cls-1" d="M3,7.55A2.84,2.84,0,0,0,5.2,6.66,3,3,0,0,0,6,4.48,3.07,3.07,0,0,0,5.2,2.29a3.12,3.12,0,0,0-4.34,0A3,3,0,0,0,0,4.48,3,3,0,0,0,.86,6.66,2.88,2.88,0,0,0,3,7.55Z"/><rect class="cls-1" x="0.5" y="11.64" width="5.11" height="22.31"/><path class="cls-1" d="M21.28,29.23a5.07,5.07,0,0,1-2.6.52,8.23,8.23,0,0,1-3.42-.68,7.51,7.51,0,0,1-2.67-2L9.34,30.32a10.18,10.18,0,0,0,2.51,2.21A11.77,11.77,0,0,0,15,33.93a13.55,13.55,0,0,0,3.58.48,9.28,9.28,0,0,0,6.18-2,6.39,6.39,0,0,0,2.28-5.16,6,6,0,0,0-.84-3.32,6.27,6.27,0,0,0-2.16-2,14.1,14.1,0,0,0-2.79-1.21l-2.79-.81A8.14,8.14,0,0,1,16.31,19a1.59,1.59,0,0,1-.84-1.44,1.45,1.45,0,0,1,.84-1.34,5,5,0,0,1,2.37-.47,6.23,6.23,0,0,1,5.12,2.42l3.25-3.27a8.88,8.88,0,0,0-3.46-2.85,11.19,11.19,0,0,0-4.77-1,10.5,10.5,0,0,0-4.39.84,6.55,6.55,0,0,0-2.84,2.37,6.7,6.7,0,0,0-1,3.67,5.75,5.75,0,0,0,.84,3.26,6.18,6.18,0,0,0,2.16,2,14.1,14.1,0,0,0,2.79,1.14l2.79.81a7.73,7.73,0,0,1,2.16,1,1.81,1.81,0,0,1,.81,1.59A1.61,1.61,0,0,1,21.28,29.23Z"/><polygon class="cls-1" points="34.67 33.95 39.78 33.95 39.78 16.29 45.13 16.29 45.13 11.64 39.78 11.64 39.78 2.34 34.67 2.34 34.67 11.64 29.33 11.64 29.33 16.29 34.67 16.29 34.67 33.95"/><path class="cls-1" d="M51.5,7.55a2.88,2.88,0,0,0,2.19-.89,3.08,3.08,0,0,0,.83-2.18,3.12,3.12,0,0,0-.83-2.19,3.13,3.13,0,0,0-4.35,0,3,3,0,0,0-.86,2.19,3,3,0,0,0,.86,2.18A2.88,2.88,0,0,0,51.5,7.55Z"/><rect class="cls-1" x="48.94" y="11.64" width="5.12" height="22.31"/><path class="cls-1" d="M63.44,33.93a13.55,13.55,0,0,0,3.58.48,9.36,9.36,0,0,0,6.2-1.93,6.35,6.35,0,0,0,2.27-5.16A6,6,0,0,0,74.66,24a6.27,6.27,0,0,0-2.16-2,13.52,13.52,0,0,0-2.8-1.25l-2.79-.81a8,8,0,0,1-2.16-.89,1.59,1.59,0,0,1-.84-1.44,1.45,1.45,0,0,1,.84-1.34,5.08,5.08,0,0,1,2.39-.49,6.2,6.2,0,0,1,5.11,2.42L75.52,15A8.72,8.72,0,0,0,72,12.12a11.15,11.15,0,0,0-4.76-1,10.55,10.55,0,0,0-4.4.84,6.27,6.27,0,0,0-3.83,6,5.82,5.82,0,0,0,.83,3.26,6,6,0,0,0,2.17,2,14.1,14.1,0,0,0,2.79,1.14l2.78.81a7.92,7.92,0,0,1,2.17,1,1.78,1.78,0,0,1,.83,1.58,1.6,1.6,0,0,1-.88,1.48,5.09,5.09,0,0,1-2.6.52,8.23,8.23,0,0,1-3.42-.68,7.51,7.51,0,0,1-2.67-2l-3.26,3.25a10.18,10.18,0,0,0,2.51,2.21A12.11,12.11,0,0,0,63.44,33.93Z"/><path class="cls-1" d="M96,12.31a9.33,9.33,0,0,0-8.91,0,8.41,8.41,0,0,0-2.22,1.89V.48H79.71V34h5.12V21.06h0a5.23,5.23,0,0,1,.65-2.65,4.79,4.79,0,0,1,1.79-1.81A5.44,5.44,0,0,1,89.92,16a4.87,4.87,0,0,1,3.65,1.44A5,5,0,0,1,95,21.06V34h5.13V20A9,9,0,0,0,99,15.37,7.91,7.91,0,0,0,96,12.31Z"/><path class="cls-1" d="M121.5,14.16a8.44,8.44,0,0,0-2.3-1.86,9.17,9.17,0,0,0-4.53-1.1,9.94,9.94,0,0,0-5.46,1.53,11,11,0,0,0-3.86,4.18,12.39,12.39,0,0,0-1.42,5.93,12.16,12.16,0,0,0,1.42,5.88,11,11,0,0,0,3.86,4.16,9.94,9.94,0,0,0,5.46,1.53,9.35,9.35,0,0,0,4.55-1.09,7.84,7.84,0,0,0,2.29-1.84V34h5.11V11.64H121.5Zm-1.42,13.51a5.87,5.87,0,0,1-4.57,1.91h0a6.25,6.25,0,0,1-3.27-.86A6,6,0,0,1,110,26.33a8,8,0,0,1,0-7.07,6,6,0,0,1,2.23-2.39,6.11,6.11,0,0,1,3.28-.86,6.22,6.22,0,0,1,3.32.86,6.05,6.05,0,0,1,2.21,2.39,7.72,7.72,0,0,1,.79,3.53A7,7,0,0,1,120.08,27.67Z"/><path class="cls-1" d="M143.2,11.17a6.55,6.55,0,0,0-5.7,2.63l-.1.17V11.64h-5.11V34h5.11V20.71a5.7,5.7,0,0,1,1.39-3.37A4.86,4.86,0,0,1,142.33,16a4.78,4.78,0,0,1,1.72.28,3.56,3.56,0,0,1,1.34.93l3.34-3.47A6.85,6.85,0,0,0,143.2,11.17Z"/><path class="cls-1" d="M166.73,11.64v2.52a8.44,8.44,0,0,0-2.3-1.86,9.17,9.17,0,0,0-4.53-1.1,10,10,0,0,0-5.47,1.53,11.2,11.2,0,0,0-3.85,4.18,12.29,12.29,0,0,0-1.44,5.93,12.16,12.16,0,0,0,1.42,5.88,11.07,11.07,0,0,0,3.85,4.16,10.16,10.16,0,0,0,5.47,1.53,9.35,9.35,0,0,0,4.55-1.09,8.19,8.19,0,0,0,2.3-1.84V34h5.11V11.64Zm-1.42,16a5.89,5.89,0,0,1-4.58,1.91,6.14,6.14,0,0,1-3.23-.86,6,6,0,0,1-2.28-2.39,8.12,8.12,0,0,1,0-7.07A6,6,0,0,1,160.73,16a6.28,6.28,0,0,1,3.33.86,5.76,5.76,0,0,1,2.2,2.39,7.48,7.48,0,0,1,.79,3.53,6.92,6.92,0,0,1-1.74,4.91Z"/><path class="cls-1" d="M202.78,5.11A4.62,4.62,0,0,1,204,6l3.3-3.3a9.48,9.48,0,0,0-2.7-2A7.77,7.77,0,0,0,201.1,0a9.59,9.59,0,0,0-4.7,1.12,8.19,8.19,0,0,0-3.12,3.06,8.84,8.84,0,0,0-1.14,4.52v2.93h-5.36v4.65h5.36V33.93h5.14V16.27H204V11.62h-6.7V8.7a3.74,3.74,0,0,1,5.5-3.59Z"/><path class="cls-1" d="M217.83,11.16a6.58,6.58,0,0,0-5.69,2.62l-.08.13V11.62H207V33.93h5.11V20.55a5.66,5.66,0,0,1,1.36-3.26A4.92,4.92,0,0,1,217,15.94a5.3,5.3,0,0,1,1.72.28,3.52,3.52,0,0,1,1.35.93l3.35-3.45A6.82,6.82,0,0,0,217.83,11.16Z"/><path class="cls-1" d="M240.85,12.62a10.53,10.53,0,0,0-5.5-1.44,11.42,11.42,0,0,0-10,5.69,12.24,12.24,0,0,0,0,11.88,11.41,11.41,0,0,0,4.23,4.16,12.21,12.21,0,0,0,6,1.51,12.67,12.67,0,0,0,4.93-1,10.4,10.4,0,0,0,3.94-2.88l-3.25-3.3A6.65,6.65,0,0,1,238.71,29a8.06,8.06,0,0,1-3.18.6,7.05,7.05,0,0,1-3.54-.86,5.87,5.87,0,0,1-2.37-2.44A7.57,7.57,0,0,1,229,24.7h16.68c.09-.46.16-.89.21-1.28a8.47,8.47,0,0,0,.07-1.13,11.89,11.89,0,0,0-1.37-5.72A10.36,10.36,0,0,0,240.85,12.62Zm-9.07,4.08a6.57,6.57,0,0,1,3.39-.84,6.35,6.35,0,0,1,3.14.74,5.1,5.1,0,0,1,2,2.14,9.47,9.47,0,0,1,.6,1.77H229.05a8.09,8.09,0,0,1,.53-1.47A5.76,5.76,0,0,1,231.78,16.7Z"/><path class="cls-1" d="M265.65,12.6a10.56,10.56,0,0,0-5.51-1.44,11.4,11.4,0,0,0-5.87,1.54h0a11.69,11.69,0,0,0-4.12,16,11.13,11.13,0,0,0,4.27,4.18,12,12,0,0,0,6,1.51,12.62,12.62,0,0,0,4.92-1,10.3,10.3,0,0,0,3.88-2.88L266,27.21A6.65,6.65,0,0,1,263.48,29a8.06,8.06,0,0,1-3.18.6,7,7,0,0,1-3.52-.83,5.7,5.7,0,0,1-2.37-2.44,9,9,0,0,1-.63-1.61H270.5c.09-.42.16-.85.21-1.28a8.77,8.77,0,0,0,.07-1.15,11.89,11.89,0,0,0-1.37-5.72A10.26,10.26,0,0,0,265.65,12.6ZM254.39,19a5.81,5.81,0,0,1,2.23-2.33,6.57,6.57,0,0,1,3.39-.84,6.35,6.35,0,0,1,3.14.74,5.16,5.16,0,0,1,2,2.14,9.49,9.49,0,0,1,.63,1.76H253.87A8.87,8.87,0,0,1,254.39,19Z"/></g></g></svg>