<svg xmlns="http://www.w3.org/2000/svg" viewBox="0 0 97.89 96.83"><defs><style>.cls-1{fill:#418cdf;}.cls-2{fill:none;}</style></defs><g id="Layer_2" data-name="Layer 2"><g id="Layer_1-2" data-name="Layer 1"><g id="Layer_2-2" data-name="Layer 2"><g id="Layer_1-2-2" data-name="Layer 1-2"><circle class="cls-1" cx="74.15" cy="65.76" r="7.78"/><circle class="cls-1" cx="23.69" cy="65.76" r="7.78"/><path class="cls-1" d="M45.21,39.86v1.8A2.79,2.79,0,0,0,48,44.46h1.81a2.89,2.89,0,0,0,2.81-3,1.34,1.34,0,0,0,0-.2V39.86a.29.29,0,0,0-.28-.29H45.5a.29.29,0,0,0-.29.29Z"/><path class="cls-1" d="M57.45,27.53a8.73,8.73,0,0,0-7.55-7.7,8.57,8.57,0,0,0-6.53,15,5.25,5.25,0,0,1,1.68,2.67.28.28,0,0,0,.27.22H52.5a.28.28,0,0,0,.27-.22,5.06,5.06,0,0,1,1.67-2.56A8.53,8.53,0,0,0,57.45,27.53Z"/><path class="cls-1" d="M69.67,49.12l-2.2-8.18A20.77,20.77,0,0,0,49,10.69h-.14A20.77,20.77,0,0,0,30.37,40.94l-2.19,8.2a2.42,2.42,0,0,0,1.68,3,2.28,2.28,0,0,0,1.32,0l8.2-2.2a20.89,20.89,0,0,0,9.36,2.28h.39a20.76,20.76,0,0,0,9.33-2.28l8.2,2.19a2.44,2.44,0,0,0,3-1.73,2.48,2.48,0,0,0,0-1.27Zm-2.57.43-9-2.39-.46.24a18,18,0,0,1-8.58,2.21h-.35a18.06,18.06,0,0,1-8.59-2.21l-.45-.24-9,2.39,2.39-9-.25-.46a18.19,18.19,0,0,1,16-26.86H49A18.17,18.17,0,0,1,65,40.14l-.25.46Z"/><path class="cls-2" d="M95.33,48.94v2.11a29.24,29.24,0,0,1-.27,3.39,4.82,4.82,0,0,1-.1.75l-.12.87-.18,1.07c-.1.56-.21,1.12-.33,1.67l-.12.52h0l-.09.4a1.76,1.76,0,0,1-.13.5c0,.16-.15.61-.24.91a1.49,1.49,0,0,1-.11.4c0,.13-.07.27-.11.4s-.07.24-.11.36l-.12.39a1.82,1.82,0,0,1-.17.53c-.06.18-.15.49-.24.73h0l-.21.61c0,.09-.07.17-.1.25l-.22.6c-.11.3-.23.59-.35.88s-.26.65-.4,1l-.27.6c-.12.28-.25.56-.38.83h0l-.39.79-.16.32v.1c-.07.15-.15.29-.22.44h0l-.19.36-.15.28-.15.26-.22.4c-.13.23-.26.46-.4.69l-.54.9-.46.72c-.22.35-.45.69-.68,1l-.59.84-.31.42-.63.84-.64.81h0c-.14.17-.27.34-.41.5-.26.32-.53.63-.8.94s-.31.36-.47.53h0A46.35,46.35,0,0,1,58.7,94.24l-.28.06a26.77,26.77,0,0,1,2.77-9.36A30.61,30.61,0,0,1,52,87.12v.13c0,1.31-1.36,2.37-3,2.37s-3-1.06-3-2.37v-.13a30.53,30.53,0,0,1-9.32-2.18,26.43,26.43,0,0,1,2.79,9.34h0A46.34,46.34,0,0,1,14.48,79.87h0c-.46-.51-.91-1-1.35-1.57-.19-.24-.38-.47-.57-.72l-.39-.49c-.19-.26-.39-.51-.58-.78l-.34-.47c-.21-.28-.4-.57-.6-.85l-.42-.63c-.44-.66-.85-1.33-1.26-2l-.26-.42c-.09-.14-.17-.28-.25-.43s-.17-.37-.26-.57-.2-.26-.2-.42l-.24-.46c-.07-.13-.13-.25-.19-.38s-.14-.27-.2-.4-.17-.34-.25-.52-.19-.39-.28-.58l-.24-.54c0-.11-.1-.22-.14-.33s-.17-.38-.25-.57c-.15-.36-.3-.72-.44-1.09l-.33-.71c-.11-.31-.23-.62-.33-.94s-.21-.62-.31-.93a1.52,1.52,0,0,0-.09-.28c0-.09-.11-.32-.15-.48A2.29,2.29,0,0,1,4.48,62h0a1.39,1.39,0,0,0-.1-.33v-.11l-.18-.66c-.07-.25-.13-.51-.2-.77s-.11-.44-.16-.67c-.11-.48-.22-1-.31-1.46a4,4,0,0,0-.11-.56l-.06-.33h0c-.07-.41-.14-.83-.2-1.24a1.36,1.36,0,0,0-.08-.56c-.08-.19,0-.22,0-.34L3,54.47,3,53.92l-.06-.54V49a46.37,46.37,0,0,1,92.74,0Z"/><path class="cls-1" d="M83.58,14.28A49,49,0,0,0,12.73,81.83h0c.52.57,1,1.12,1.6,1.67a48.58,48.58,0,0,0,23.36,13l1,.22a.7.7,0,0,0,.84-.53,1.27,1.27,0,0,0,0-.2,15.07,15.07,0,0,0-.14-1.78l-.27-.06A46.31,46.31,0,0,1,14.48,79.87h0c-.46-.51-.91-1-1.35-1.57-.19-.24-.38-.47-.57-.72l-.39-.49c-.19-.26-.39-.51-.58-.78l-.34-.47c-.21-.28-.4-.57-.6-.85l-.42-.63c-.44-.66-.85-1.33-1.26-2l-.26-.42c-.09-.14-.17-.28-.25-.43s-.17-.37-.26-.57-.2-.26-.2-.42l-.24-.46c-.07-.13-.13-.25-.19-.38s-.14-.27-.2-.4-.17-.34-.25-.52-.19-.39-.28-.58l-.24-.54c0-.11-.1-.22-.14-.33s-.17-.38-.25-.57c-.15-.36-.3-.72-.44-1.09l-.33-.71c-.11-.31-.23-.62-.33-.94s-.21-.62-.31-.93a1.52,1.52,0,0,0-.09-.28,3.37,3.37,0,0,1-.15-.48A2.29,2.29,0,0,1,4.48,62h0a1.39,1.39,0,0,0-.1-.33v-.11l-.18-.66c-.07-.25-.13-.51-.2-.77s-.11-.44-.16-.67c-.11-.48-.22-1-.31-1.46a4,4,0,0,0-.11-.56l-.06-.33h0c-.07-.41-.14-.83-.2-1.24a1.36,1.36,0,0,0-.08-.56c-.08-.19,0-.22,0-.34L3,54.47,3,53.92l-.06-.54V49a46.37,46.37,0,0,1,92.74,0v2.11a29.24,29.24,0,0,1-.27,3.39,4.82,4.82,0,0,1-.1.75l-.12.87L95,57.16c-.1.56-.21,1.12-.33,1.67l-.12.52h0l-.09.4a1.76,1.76,0,0,1-.13.5c0,.16-.15.61-.24.91a1.49,1.49,0,0,1-.11.4c0,.13-.07.27-.11.4s-.07.24-.11.36l-.12.39-.22.7a1.51,1.51,0,0,1-.16.48V64l-.21.61-.1.25-.22.6c-.11.3-.23.59-.35.88l-.4,1-.27.6c-.12.28-.25.56-.38.83h0l-.39.79-.16.32V70c-.07.15-.15.29-.22.44h0l-.19.36-.15.28-.15.26-.22.4c-.13.23-.26.46-.4.69s-.36.61-.54.9l-.46.72c-.22.35-.45.69-.68,1l-.59.84-.31.42-.63.84-.64.81h0c-.14.17-.27.34-.41.5-.26.32-.53.63-.8.94s-.31.36-.47.53h0A46.38,46.38,0,0,1,58.7,94.24l-.28.06c-.06.58-.11,1.18-.14,1.78a.71.71,0,0,0,.67.75.58.58,0,0,0,.19,0l1.09-.24a48.68,48.68,0,0,0,23.35-13c.54-.53,1.06-1.07,1.56-1.63h0a49,49,0,0,0-1.58-67.6Z"/><path class="cls-1" d="M33,80.4a12,12,0,0,0,2.64,2.34,18.92,18.92,0,0,0,3.23,1.73,24.8,24.8,0,0,0,7.24,1.79A28.62,28.62,0,0,0,53.62,86a23.35,23.35,0,0,0,7.05-2.31l-.85,1.23h0l-.08-.77.93-.5c.41-.23.81-.45,1.2-.7A10.45,10.45,0,0,0,63,82.23a11.75,11.75,0,0,0,1-.87,8.64,8.64,0,0,0,.91-1l2.65,3.32c-.48.28-1,.54-1.45.78s-1,.46-1.47.67-1,.4-1.47.58-1,.35-1.48.5l.88-1.27h0l-.1,1-.75.23a40.45,40.45,0,0,1-7.86,1.6,46.32,46.32,0,0,1-7.9.16,41.85,41.85,0,0,1-7.87-1.22,30.86,30.86,0,0,1-7.75-3.07Z"/><path class="cls-1" d="M52,87.25c0,1.31-1.36,2.37-3,2.37s-3-1.06-3-2.37v-.13c0-1.24,1.38-2.18,3-2.18s3,1,3,2.23Z"/><path class="cls-1" d="M85.16,81.88h0c-.5.56-1,1.1-1.56,1.63a48.68,48.68,0,0,1-23.35,13l-1,.22a.8.8,0,0,1-1-.57,1,1,0,0,1,0-.25,15.25,15.25,0,0,1,.13-1.67,26.73,26.73,0,0,1,2.81-9.3h0c2.89-5.53,7.62-9.14,13-9.14a13.27,13.27,0,0,1,9.22,4.14A17.82,17.82,0,0,1,85.16,81.88Z"/><path class="cls-1" d="M39.56,96.06a.7.7,0,0,1-.65.75.68.68,0,0,1-.2,0l-1-.22a48.58,48.58,0,0,1-23.36-13c-.55-.55-1.09-1.11-1.61-1.69h0a19.32,19.32,0,0,1,1.74-2,13.26,13.26,0,0,1,9.22-4c5.33,0,10.05,3.59,12.94,9.1a26.43,26.43,0,0,1,2.79,9.34h0C39.49,94.87,39.53,95.46,39.56,96.06Z"/></g></g></g></g></svg>