<svg height="512" viewBox="0 0 64 64" width="512" xmlns="http://www.w3.org/2000/svg"><g id="flat"><rect fill="#f9bb4b" height="54" rx="2" width="32" x="5" y="3"/><path d="m19 29.35a5.99 5.99 0 0 0 0 11.3h4a5.99 5.99 0 0 0 0-11.3z" fill="#fcf05a"/><path d="m9 11h24v8h-24z" fill="#f4f4e6"/><path d="m8 6h2v2h-2z" fill="#e97424"/><path d="m12 6h2v2h-2z" fill="#e97424"/><path d="m20 23h2v3h-2z" fill="#66342e"/><path d="m9 34h3v2h-3z" fill="#66342e"/><path d="m30 34h3v2h-3z" fill="#66342e"/><path d="m20 44h2v3h-2z" fill="#66342e"/><circle cx="11" cy="51" fill="#dd3e46" r="2"/><circle cx="19" cy="51" fill="#dd3e46" r="2"/><path d="m23 29.35v11.3a5.889 5.889 0 0 1 -4 0v-11.3a5.889 5.889 0 0 1 4 0z" fill="#e97424"/><g fill="#66342e"><path d="m14 24.586h2v2.828h-2z" transform="matrix(.707 -.707 .707 .707 -13.991 18.222)"/><path d="m10.5 28.197h2v3.606h-2z" transform="matrix(.555 -.832 .832 .555 -19.841 22.928)"/><path d="m25.586 25h2.828v2h-2.828z" transform="matrix(.707 -.707 .707 .707 -10.477 26.707)"/><path d="m28.697 29h3.606v2h-3.606z" transform="matrix(.832 -.555 .555 .832 -11.519 21.957)"/><path d="m13.586 42h2.828v2h-2.828z" transform="matrix(.707 -.707 .707 .707 -26.012 23.201)"/><path d="m9.697 38h3.606v2h-3.606z" transform="matrix(.832 -.555 .555 .832 -19.702 12.929)"/><path d="m26 41.586h2v2.828h-2z" transform="matrix(.707 -.707 .707 .707 -22.497 31.686)"/><path d="m29.5 37.197h2v3.606h-2z" transform="matrix(.555 -.832 .832 .555 -18.868 42.744)"/></g><path d="m8 22h4v2h-4z" fill="#fcf05a"/><path d="m30 22h4v2h-4z" fill="#fcf05a"/><path d="m25 49h4v8h-4z" fill="#394d5c"/><path d="m29 49h4v8h-4z" fill="#da1c4b"/><path d="m39 62h-5a4 4 0 0 1 -4-4v-1h2v1a2 2 0 0 0 2 2h5z" fill="#b11e48"/><path d="m46 46h-2l-1-7v-19h4v19z" fill="#394d5c"/><path d="m41 16h8v4h-8z" fill="#7d8d9c"/><path d="m47 16h-4l1-8h2z" fill="#394d5c"/><path d="m44 3h2v5h-2z" fill="#32b1cc"/><path d="m56 53h-2l-1-7v-19h4v19z" fill="#da1c4b"/><path d="m51 23h8v4h-8z" fill="#b11e48"/><path d="m57 23h-4l1-8h2z" fill="#da1c4b"/><path d="m54 10h2v5h-2z" fill="#32b1cc"/><path d="m53 62h-12v-2h12a1 1 0 0 0 1-1v-6h2v6a3 3 0 0 1 -3 3z" fill="#b11e48"/><path d="m21 3h12v4h-12z" fill="#fcf05a"/><path d="m41 62h-12a3 3 0 0 1 -3-3v-2h2v2a1 1 0 0 0 1 1h12a3 3 0 0 0 3-3v-11h2v11a5.006 5.006 0 0 1 -5 5z" fill="#7d8d9c"/></g></svg>