<svg id="Capa_1" enable-background="new 0 0 512 512" height="512" viewBox="0 0 512 512" width="512" xmlns="http://www.w3.org/2000/svg"><g><g><g><path d="m291.766 176.81s-58.869-65.897-109.35-77.889l-14.437-.048c-53 0-122.383 79.66-122.383 79.66l246.17-.34z" fill="#c48958"/><path d="m182.416 98.921c-5.08-1.212-10.077-1.878-14.916-1.878-53 0-124.453 79.475-124.453 79.475l.561 2.095 23.455.907 1.878-2.972c7.68-8.331 65.473-69.527 113.475-77.627z" fill="#b27a49"/></g><path d="m502.187 322.108-402.187-4.354v53.5l399.5-.5c2.761 0 5-2.239 5-5v-30.5z" fill="#59535b"/><g><path d="m27.5 295.504 1.33 4.999h295.67v-99h-295.5l-1.5 4.999-7.588 42.417z" fill="#e27c48"/><path d="m27.5 206.502-10-6.607-10 6.607v37.002l3 7.5-3 7.5v37l8.904 2.944 11.096-2.944z" fill="#df6937"/></g><g><path d="m315.5 386.516h31c2.761 0 5-2.239 5-5v-22c0-2.761-2.239-5-5-5h-31l-2.202 5v22z" fill="#e27c48"/><path d="m300.5 354.516c-2.761 0-5 2.239-5 5v22c0 2.761 2.239 5 5 5h15v-32z" fill="#df6937"/></g><g><path d="m338.5 134.504-3.798 3.75.101 185.245 3.697 2.005h17v-131.481l-4-5.769v-19.75c0-2.761 2.239-5 5-5h37c2.761 0 5-2.239 5-5v-24z" fill="#e27c48"/><path d="m326.5 134.504c-2.761 0-5 2.239-5 5v186h17v-191z" fill="#df6937"/></g><g><path d="m321.5 325.504h-294l-4.275-13.875 4.275-16.125h302.5z" fill="#df6937"/><path d="m27.5 295.504h-20v25c0 2.761 2.239 5 5 5h15z" fill="#dd552d"/></g><g><path d="m323 176.502h-295.5l-4.216 15 4.172 15h300.544z" fill="#df6937"/><path d="m7.5 176.502h20v30h-20z" fill="#dd552d"/></g><g><path d="m364.418 254.379 4.082-66.125h28.339c15.892 0 30.277 9.408 36.646 23.967l17.729 40.524c2.105 4.812 6.019 8.603 10.895 10.553l29.818 11.927c7.593 3.037 12.572 10.391 12.572 23.57v6.459l-29 30h-107z" fill="#dedbdf"/><path d="m351.5 188.254v137c0 5.523 4.477 10 10 10h7v-147z" fill="#d4cfd5"/><path d="m504.5 335.254h-29v-25c0-2.761 2.239-5 5-5h24z" fill="#f7e242"/></g><g><path d="m392.191 263.254v-44l2.309-5h2.085c6.013 0 11.444 3.59 13.8 9.122l16.151 37.919c1.405 3.298-1.015 6.959-4.6 6.959h-27.436z" fill="#f9f8f9"/><path d="m381.5 214.254c-2.761 0-5 2.239-5 5v44c0 2.761 2.239 5 5 5h13v-54z" fill="#eceaec"/></g><g><g><path d="m476 370.496c0-24.853-20.147-45-45-45-8.841 0-17.084 2.555-24.039 6.959 0 0-18.961 15.397-18.961 38.041 0 24.853 18.147 43 43 43 23.872 0 38.041-18.961 38.041-18.961 4.404-6.955 6.959-15.198 6.959-24.039z" fill="#766d78"/><path d="m445 401.496c-24.853 0-45-20.147-45-45 0-8.842 2.557-17.086 6.961-24.041-12.595 7.976-20.961 22.03-20.961 38.041 0 24.853 20.147 45 45 45 16.011 0 30.065-8.366 38.041-20.961-6.955 4.404-15.199 6.961-24.041 6.961z" fill="#655e67"/></g><circle cx="431" cy="370.496" fill="#f9f8f9" r="15"/></g><g><g><path d="m265 370.496c0-24.853-20.147-45-45-45-8.841 0-17.084 2.555-24.039 6.959 0 0-18.961 15.397-18.961 38.041 0 24.853 18.147 43 43 43 23.872 0 38.041-18.961 38.041-18.961 4.404-6.955 6.959-15.198 6.959-24.039z" fill="#766d78"/><path d="m234 401.496c-24.853 0-45-20.147-45-45 0-8.842 2.557-17.086 6.961-24.041-12.595 7.976-20.961 22.03-20.961 38.041 0 24.853 20.147 45 45 45 16.011 0 30.065-8.366 38.041-20.961-6.955 4.404-15.199 6.961-24.041 6.961z" fill="#655e67"/></g><circle cx="220" cy="370.496" fill="#f9f8f9" r="15"/></g><g><g><path d="m145 370.496c0-24.853-20.147-45-45-45-8.841 0-17.084 2.555-24.039 6.959 0 0-18.961 15.397-18.961 38.041 0 24.853 18.147 43 43 43 23.872 0 38.041-18.961 38.041-18.961 4.404-6.955 6.959-15.198 6.959-24.039z" fill="#766d78"/><path d="m114 401.496c-24.853 0-45-20.147-45-45 0-8.842 2.557-17.086 6.961-24.041-12.595 7.976-20.961 22.03-20.961 38.041 0 24.853 20.147 45 45 45 16.011 0 30.065-8.366 38.041-20.961-6.955 4.404-15.199 6.961-24.041 6.961z" fill="#655e67"/></g><circle cx="100" cy="370.496" fill="#f9f8f9" r="15"/></g></g><g><path d="m494.713 268.262-29.817-11.927c-3.066-1.227-5.485-3.569-6.81-6.596l-17.729-40.523c-7.563-17.29-24.645-28.461-43.517-28.461h-37.84v-9.75h34.5c6.893 0 12.5-5.607 12.5-12.5 0-9.592 0-30.5 0-40 0-4.142-3.357-7.5-7.5-7.5s-7.5 3.358-7.5 7.5v8.5c-15.344 0-49.779 0-64.5 0-6.893 0-12.5 5.607-12.5 12.5v29.5h-18.64c-6.209-6.671-24.347-25.495-47.224-43.304-3.269-2.543-7.98-1.958-10.525 1.312-2.545 3.269-1.958 7.981 1.311 10.525 14.322 11.149 26.893 22.913 35.51 31.467h-214.2c21.844-21.626 70.27-65 107.269-65 12.137 0 26.759 4.869 43.459 14.471 3.588 2.063 8.175.827 10.24-2.764 2.064-3.591.827-8.175-2.764-10.24-19.004-10.927-36.141-16.467-50.936-16.467-51.57 0-116.49 67.35-128.226 80h-24.274v-13.5c0-4.142-3.357-7.5-7.5-7.5s-7.5 3.358-7.5 7.5v165c0 6.893 5.607 12.5 12.5 12.5h5.5v37.25c0 4.142 3.357 7.5 7.5 7.5s7.5-3.358 7.5-7.5v-37.25h30.299c-9.739 9.535-15.799 22.816-15.799 37.491 0 28.949 23.552 52.5 52.5 52.5 26.138 0 47.871-19.203 51.845-44.242h16.31c3.974 25.038 25.707 44.242 51.845 44.242s47.871-19.203 51.845-44.242h16.155v2.761c0 6.893 5.607 12.5 12.5 12.5h46c6.893 0 12.5-5.607 12.5-12.5v-3.261h20.077c3.762 25.283 25.611 44.742 51.923 44.742s48.161-19.459 51.923-44.742h16.577c6.893 0 12.5-5.607 12.5-12.5v-71.959c0-11.31-6.785-21.333-17.287-25.533zm2.287 54.492h-14v-10h14zm-106-166.75h-32v-14h32zm-62-14h15v101.625c0 4.142 3.357 7.5 7.5 7.5s7.5-3.358 7.5-7.5v-47.875h37.84c12.912 0 24.6 7.644 29.774 19.474l17.729 40.523c2.913 6.658 8.233 11.812 14.981 14.51l29.817 11.927c4.773 1.91 7.857 6.465 7.857 11.606v3.959h-16.5c-6.893 0-12.5 5.607-12.5 12.5v12.5h-15.202c-6.645-3.046-14.023-4.758-21.798-4.758s-15.154 1.712-21.798 4.758h-50.2v-44.125c0-4.142-3.357-7.5-7.5-7.5s-7.5 3.358-7.5 7.5v39.375h-15zm-15 42v14.75h-215.979c-4.143 0-7.5 3.358-7.5 7.5s3.357 7.5 7.5 7.5h215.979v29.75h-299v-29.75h48.021c4.143 0 7.5-3.358 7.5-7.5s-3.357-7.5-7.5-7.5h-48.021v-14.75zm-299 134v-14.75h153.404c4.143 0 7.5-3.358 7.5-7.5s-3.357-7.5-7.5-7.5h-153.404v-29.75h299v29.75h-110.596c-4.143 0-7.5 3.358-7.5 7.5s3.357 7.5 7.5 7.5h110.596v14.75c-88.096 0-211.225 0-299 0zm152.948 45.75h-15.895c-1.543-11.976-7.129-22.699-15.351-30.75h46.598c-8.224 8.051-13.809 18.774-15.352 30.75zm-67.948 44.242c-20.678 0-37.5-16.822-37.5-37.5 0-20.568 16.646-37.315 37.173-37.492 20.333-.309 37.838 16.775 37.827 37.492 0 20.678-16.822 37.5-37.5 37.5zm120 0c-20.678 0-37.5-16.822-37.5-37.5 0-20.568 16.646-37.315 37.173-37.492 20.333-.309 37.838 16.775 37.827 37.492 0 20.678-16.822 37.5-37.5 37.5zm52.052-44.242c-1.543-11.976-7.129-22.699-15.351-30.75h87.299v14.011h-43.5c-6.893 0-12.5 5.607-12.5 12.5v4.239zm71.948 15.261h-41v-17h41zm15-41.261h31.005c-5.762 7.2-9.668 15.941-10.994 25.5h-20.011zm72 70.242c-20.678 0-37.5-16.822-37.5-37.5s16.822-37.5 37.5-37.5 37.5 16.822 37.5 37.5-16.822 37.5-37.5 37.5zm51.989-44.742c-1.325-9.559-5.231-18.3-10.994-25.5h25.005v25.5z"/><path d="m376.5 275.754h53c2.519 0 4.868-1.264 6.257-3.364s1.63-4.758.644-7.075l-19.114-44.878c-3.541-8.312-11.667-13.683-20.701-13.683h-20.086c-4.143 0-7.5 3.358-7.5 7.5v54c0 4.142 3.357 7.5 7.5 7.5zm7.5-54h12.585c3.012 0 5.721 1.791 6.9 4.561l14.668 34.439h-34.153z"/><path d="m431 347.996c-12.406 0-22.5 10.093-22.5 22.5s10.094 22.5 22.5 22.5 22.5-10.093 22.5-22.5-10.094-22.5-22.5-22.5zm0 30c-4.136 0-7.5-3.364-7.5-7.5s3.364-7.5 7.5-7.5 7.5 3.364 7.5 7.5-3.364 7.5-7.5 7.5z"/><path d="m100 347.996c-12.406 0-22.5 10.093-22.5 22.5s10.094 22.5 22.5 22.5 22.5-10.093 22.5-22.5-10.094-22.5-22.5-22.5zm0 30c-4.136 0-7.5-3.364-7.5-7.5s3.364-7.5 7.5-7.5 7.5 3.364 7.5 7.5-3.364 7.5-7.5 7.5z"/><path d="m220 347.996c-12.406 0-22.5 10.093-22.5 22.5s10.094 22.5 22.5 22.5 22.5-10.093 22.5-22.5-10.094-22.5-22.5-22.5zm0 30c-4.136 0-7.5-3.364-7.5-7.5s3.364-7.5 7.5-7.5 7.5 3.364 7.5 7.5-3.364 7.5-7.5 7.5z"/></g></g></svg>