<svg height="512pt" viewBox="-83 0 511 512" width="512pt" xmlns="http://www.w3.org/2000/svg"><path d="m137.984375 89.355469h60.929687v105.054687h-60.929687zm0 0" fill="#6a6c78"/><path d="m137.984375 89.355469h60.929687v28.589843h-60.929687zm0 0" fill="#5b5d68"/><path d="m203.074219 512h-70.246094c-8.855469 0-16.03125-7.175781-16.03125-16.027344v-294.351562c0-8.851563 7.175781-16.027344 16.03125-16.027344h70.246094c8.851562 0 16.027343 7.175781 16.027343 16.027344v294.351562c0 8.851563-7.175781 16.027344-16.027343 16.027344zm0 0" fill="#d1956c"/><path d="m219.101562 201.625v294.351562c0 8.84375-7.175781 16.019532-16.03125 16.019532h-70.25c-8.839843 0-16.027343-7.175782-16.027343-16.019532v-10.542968h58.371093c8.851563 0 16.027344-7.171875 16.027344-16.027344v-283.8125h11.878906c8.855469 0 16.03125 7.175781 16.03125 16.03125zm0 0" fill="#b57756"/><path d="m238.902344 15.300781h47.304687v62.777344h-47.304687zm0 0" fill="#6a6c78"/><path d="m342.796875 97.9375h-58.84375c-2.078125 0-3.761719-1.683594-3.761719-3.761719v-90.417969c0-2.074218 1.683594-3.757812 3.761719-3.757812h58.84375c2.074219 0 3.757813 1.683594 3.757813 3.757812v90.417969c0 2.078125-1.683594 3.761719-3.757813 3.761719zm0 0" fill="#9395a3"/><path d="m346.558594 3.761719v90.417969c0 2.066406-1.6875 3.757812-3.769532 3.757812h-58.832031c-2.078125 0-3.769531-1.691406-3.769531-3.757812v-16.101563h42.527344c2.082031 0 3.769531-1.6875 3.769531-3.757813v-74.31640575h16.304687c2.082032 0 3.769532 1.67968775 3.769532 3.75781275zm0 0" fill="#7f828f"/><path d="m247.011719 50.035156v-39.59375c0-5.765625-4.671875-10.441406-10.441407-10.441406h-170.171874c-3.550782 0-6.859376 1.804688-8.78125 4.792969l-55.867188 86.863281c-4.359375 6.777344 3.558594 14.730469 10.355469 10.398438l54.074219-34.460938c13.601562-8.667969 31.703124-1.542969 35.746093 14.070312l2.371094 9.148438c1.191406 4.605469 5.347656 7.824219 10.105469 7.824219h122.167968c5.769532 0 10.441407-4.675781 10.441407-10.445313zm0 0" fill="#9395a3"/><path d="m247.007812 10.441406v77.757813c0 5.765625-4.671874 10.4375-10.4375 10.4375h-122.164062c-4.757812 0-8.917969-3.222657-10.109375-7.824219l-2.367187-9.152344c-.136719-.523437-.289063-1.050781-.464844-1.554687h107.199218c5.765626 0 10.4375-4.671875 10.4375-10.4375v-69.66406275h17.46875c5.765626 0 10.4375 4.67578175 10.4375 10.43749975zm0 0" fill="#7f828f"/></svg>